<svg width="217.066895" height="71.533447" viewBox="0 0 217.067 71.5334" fill="none" xmlns="http://www.w3.org/2000/svg" xmlns:xlink="http://www.w3.org/1999/xlink">
	<defs>
		<clipPath id="clip1_220">
			<rect id="634fd1e5f7785f9f6db79305_bloomberg.svg" width="217.066681" height="71.533333" fill="white" fill-opacity="0"/>
		</clipPath>
	</defs>
	<g clip-path="url(#clip1_220)">
		<path id="Vector" d="M6.16699 17.2666L21.1162 17.2666C23.9639 17.2666 26.0996 17.9949 27.6816 19.2085C29.4219 20.6653 30.3711 22.769 30.3711 25.3584C30.3711 28.3523 29.1846 30.2134 26.8115 31.3462L26.8115 31.5081C29.9756 32.5601 31.7939 35.4731 31.7939 38.9526C31.7939 42.27 30.5293 44.8594 28.4727 46.4778C26.7324 47.7725 24.5176 48.3389 21.5117 48.3389L6.16699 48.3389L6.16699 17.2666ZM19.6133 29.4043C21.1953 29.4043 22.3818 28.5142 22.3818 26.6531C22.3818 24.8728 21.1953 23.9827 19.5342 23.9827L14.3936 23.9827L14.3936 29.3232L19.6133 29.3232L19.6133 29.4043ZM20.3252 41.4609C22.1445 41.4609 23.4893 40.3281 23.4893 38.3052C23.4893 36.1204 22.0654 35.1494 20.3252 35.1494L14.4717 35.1494L14.4717 41.542L20.3252 41.542L20.3252 41.4609Z" fill="#FFFFFF" fill-opacity="1.000000" fill-rule="nonzero"/>
		<path id="Vector" d="M33.1387 17.2666L40.9697 17.2666L40.9697 48.4199L33.1387 48.4199L33.1387 17.2666Z" fill="#FFFFFF" fill-opacity="1.000000" fill-rule="nonzero"/>
		<path id="Vector" d="M42.5508 37.3345C42.5508 30.2944 46.9805 25.6013 53.8613 25.6013C60.7432 25.6013 65.0938 30.3755 65.0938 37.3345C65.0938 44.3743 60.7432 49.0674 53.8613 49.0674C46.9805 49.0674 42.5508 44.3743 42.5508 37.3345ZM57.2627 37.3345C57.2627 33.4504 56.0762 31.0227 53.7031 31.0227C51.3301 31.0227 50.2236 33.4504 50.2236 37.3345C50.2236 41.2185 51.3301 43.7268 53.7031 43.7268C56.0762 43.646 57.2627 41.2185 57.2627 37.3345Z" fill="#FFFFFF" fill-opacity="1.000000" fill-rule="nonzero"/>
		<path id="Vector" d="M65.9639 37.3345C65.9639 30.2944 70.3936 25.6013 77.2744 25.6013C84.1562 25.6013 88.4277 30.2944 88.4277 37.3345C88.4277 44.3743 84.0771 49.0674 77.1953 49.0674C70.3936 49.0674 65.9639 44.3743 65.9639 37.3345ZM80.6758 37.3345C80.6758 33.4504 79.4893 31.0227 77.1162 31.0227C74.7432 31.0227 73.6367 33.4504 73.6367 37.3345C73.6367 41.2185 74.7432 43.7268 77.1162 43.7268C79.4893 43.646 80.6758 41.2185 80.6758 37.3345Z" fill="#FFFFFF" fill-opacity="1.000000" fill-rule="nonzero"/>
		<path id="Vector" d="M90.0088 26.168L97.2861 26.168L97.2861 29.4854L97.4434 29.4854C98.8672 26.896 100.845 25.5205 104.009 25.5205C106.777 25.5205 108.834 26.896 109.862 29.3237L110.021 29.3237C111.761 26.4106 114.055 25.5205 116.743 25.5205C121.806 25.5205 123.94 29.3237 123.94 34.4214L123.94 48.3394L116.348 48.3394L116.348 35.7971C116.348 33.5315 115.636 32.0747 113.738 32.0747C111.84 32.0747 110.891 33.855 110.891 36.2825L110.891 48.3394L103.297 48.3394L103.297 35.7971C103.297 33.5315 102.585 32.0747 100.687 32.0747C98.7881 32.0747 97.8389 33.855 97.8389 36.2825L97.8389 48.3394L90.0088 48.3394L90.0088 26.168Z" fill="#FFFFFF" fill-opacity="1.000000" fill-rule="nonzero"/>
		<path id="Vector" d="M133.512 45.426L133.433 45.426L133.433 48.3389L126.156 48.3389L126.156 17.2666L133.75 17.2666L133.75 28.4331L133.908 28.4331C135.331 26.4912 137.31 25.4392 140.077 25.4392C145.535 25.4392 148.699 30.4561 148.699 37.1724C148.699 44.6978 145.298 49.0671 139.604 49.0671C137.23 49.0671 134.778 47.9343 133.512 45.426ZM140.869 37.0916C140.869 33.531 139.604 31.1843 137.31 31.1843C134.937 31.1843 133.512 33.531 133.512 37.0916C133.512 40.6519 135.016 42.9983 137.31 42.9983C139.604 42.9983 140.869 40.7327 140.869 37.0916Z" fill="#FFFFFF" fill-opacity="1.000000" fill-rule="nonzero"/>
		<path id="Vector" d="M149.568 37.2537C149.568 30.2947 154.077 25.5205 160.563 25.5205C163.806 25.5205 166.258 26.5725 168.157 28.4336C170.688 30.9419 171.796 34.8259 171.717 39.3574L157.162 39.3574C157.479 42.1086 158.744 43.5652 161.038 43.5652C162.383 43.5652 163.569 42.9177 164.044 41.4612L171.399 41.4612C170.134 46.5591 166.258 49.0676 160.801 49.0676C154.077 48.9866 149.568 44.2932 149.568 37.2537ZM157.162 34.907L164.123 34.907C163.965 32.2366 162.541 30.8611 160.722 30.8611C158.587 30.7803 157.4 32.3176 157.162 34.907Z" fill="#FFFFFF" fill-opacity="1.000000" fill-rule="nonzero"/>
		<path id="Vector" d="M180.339 29.9707L180.496 29.9707C182.077 26.896 184.135 25.6821 186.744 25.6821C187.377 25.6821 187.773 25.7632 188.01 25.925L188.01 32.7219L187.852 32.7219C183.344 31.9128 180.733 34.0977 180.733 39.1145L180.733 48.4199L173.061 48.4199L173.061 26.1677L180.339 26.1677L180.339 29.9707Z" fill="#FFFFFF" fill-opacity="1.000000" fill-rule="nonzero"/>
		<path id="Vector" d="M188.801 48.4192L196.158 48.4192C196.474 49.3904 197.423 50.2803 199.242 50.2803C201.694 50.2803 202.563 48.7429 202.563 46.3965L202.563 44.7781L202.406 44.7781C201.22 46.2346 199.558 47.2864 197.186 47.2864C192.52 47.2864 188.406 43.7261 188.406 36.7671C188.406 30.3748 191.728 25.4387 196.79 25.4387C199.717 25.4387 201.457 26.6523 202.644 28.5134L202.802 28.5134L202.802 26.0859L210.079 26.0859L210.079 45.3445C210.079 48.9048 208.892 51.656 207.073 53.2744C205.175 54.9736 202.484 55.7019 199.4 55.7019C193.547 55.7827 189.514 53.3552 188.801 48.4192ZM202.881 36.4436C202.881 33.6924 201.615 31.4265 199.4 31.4265C197.266 31.4265 195.92 33.3687 195.92 36.4436C195.92 39.4375 197.266 41.5413 199.4 41.5413C201.536 41.5413 202.881 39.3564 202.881 36.4436Z" fill="#FFFFFF" fill-opacity="1.000000" fill-rule="nonzero"/>
	</g>
</svg>