<svg width="182.533203" height="71.533447" viewBox="0 0 182.533 71.5334" fill="none" xmlns="http://www.w3.org/2000/svg" xmlns:xlink="http://www.w3.org/1999/xlink">
	<defs>
		<clipPath id="clip1_201">
			<rect id="634fd1e5766befe5efee7666_business-insider.svg" width="182.533340" height="71.533333" fill="white" fill-opacity="0"/>
		</clipPath>
	</defs>
	<g clip-path="url(#clip1_201)">
		<path id="Vector" d="M18.3691 57.8481L22.4004 57.8481L22.4004 40.6289L18.3691 40.6289L18.3691 57.8481ZM33.1484 57.5898L36.7598 57.5898L36.7598 46.7256L51.96 57.8481L51.96 40.8872L48.3594 40.8872L48.3594 51.5659L33.1484 40.6289L33.1484 57.5898ZM60.2041 53.4197C62.1699 54.6438 64.5293 55.3513 67.0586 55.3513C69.5215 55.3513 71.25 54.6736 71.25 53.1763C71.25 51.8711 70.1475 51.3601 68.2178 50.7883L65.0928 49.9207C62.2119 49.1028 60.0205 47.9082 60.0205 45.1626C60.0205 42.2258 63.3379 40.6289 67.3037 40.6289C69.7334 40.6289 71.9482 41.1172 73.6787 41.9822L73.6787 44.8948C71.8789 43.832 69.9102 43.1003 67.3809 43.1003C65.2041 43.1003 63.5762 43.75 63.5762 45.1047C63.5762 46.3289 64.5977 46.8186 66.3965 47.3108L69.8789 48.2876C73.2529 49.2358 74.8008 50.7063 74.8008 53.125C74.8008 56.168 71.4521 57.8481 67.0586 57.8481C64.1709 57.8481 61.7158 57.2026 60.2041 56.3872L60.2041 53.4197ZM84.207 57.8481L88.2373 57.8481L88.2373 40.6289L84.207 40.6289L84.207 57.8481ZM107.146 55.2424C111.688 55.2424 114.117 52.9126 114.117 49.2346C114.117 45.5295 111.687 43.2078 107.146 43.2078L102.652 43.2078L102.652 55.2424L107.146 55.2424ZM98.9834 40.6289L107.279 40.6289C113.666 40.6289 117.796 43.9919 117.796 49.2346C117.796 54.481 113.666 57.8481 107.279 57.8481L98.9834 57.8481L98.9834 40.6289ZM137.951 40.6289L137.951 43.2078L128.196 43.2078L128.196 47.3511L136.946 47.3511L136.946 49.9004L128.195 49.9004L128.195 55.2424L137.951 55.2424L137.951 57.8481L124.515 57.8481L124.515 40.6289L137.951 40.6289ZM152.259 48.426L156.259 48.426C158.627 48.426 159.961 47.3875 159.961 45.7908C159.961 44.1938 158.627 43.1541 156.259 43.1541L152.259 43.1541L152.259 48.4275L152.259 48.426ZM152.259 50.8611L152.259 57.8481L148.699 57.8481L148.699 40.6289L156.325 40.6289C160.674 40.6289 163.487 42.4194 163.487 45.7908C163.487 48.6736 161.926 50.3296 158.6 50.7546L166.167 57.8481L162.118 57.8481L154.791 50.8623L152.26 50.8623L152.259 50.8611ZM16.96 23.6653C18.5371 23.2039 19.7656 21.8196 19.7656 19.916C19.7656 16.7439 16.96 15.1001 12.4727 15.1001L4.93359 15.1001L4.93359 32.8076L13.1729 32.8076C17.6602 32.8076 20.4658 31.0481 20.4658 27.7319C20.4658 25.8567 18.9932 24.2129 16.96 23.6653ZM8.47461 22.5408L8.47461 17.6963L12.4385 17.6963C14.9297 17.6963 16.2607 18.4175 16.2607 20.0896C16.2607 21.7617 14.9277 22.5408 12.4385 22.5408L8.47461 22.5408ZM8.47461 25.0212L13.1016 25.0212C15.5586 25.0212 16.8896 26.0007 16.8896 27.6165C16.8896 29.2024 15.5566 30.2126 13.1035 30.2126L8.47559 30.2126L8.47559 25.02L8.47461 25.0212ZM36.915 33.0955C42.0693 33.0955 45.541 30.6147 45.541 25.7705L45.541 15.1001L41.8936 15.1001L41.8936 25.4236C41.8936 28.8269 40.1406 30.4143 36.915 30.4143C33.6885 30.4143 31.9375 28.8269 31.9375 25.4236L31.9375 15.1001L28.29 15.1001L28.29 25.741C28.29 30.6147 31.7959 33.0955 36.915 33.0955ZM54.126 31.5378C55.6338 32.4041 58.0889 33.0955 60.9629 33.0955C65.3467 33.0955 68.6768 31.3064 68.6768 28.0776C68.6768 25.511 67.1357 23.9531 63.7686 22.9443L60.2988 21.9058C58.5098 21.3877 57.4932 20.8687 57.4932 19.5703C57.4932 18.1282 59.1055 17.4368 61.2793 17.4368C63.8037 17.4368 65.7676 18.2144 67.5566 19.3403L67.5566 16.2529C65.8379 15.3313 63.6289 14.8123 61.209 14.8123C57.248 14.8123 53.9512 16.5139 53.9512 19.6282C53.9512 22.5408 56.125 23.8091 58.999 24.6743L62.1211 25.5969C64.0498 26.2024 65.1367 26.7512 65.1367 28.1355C65.1367 29.7217 63.418 30.4426 60.9629 30.4426C58.4395 30.4426 56.0898 29.6921 54.126 28.3953L54.126 31.5378ZM81.707 15.1001L78.0615 15.1001L78.0615 32.8064L81.707 32.8064L81.707 15.1001ZM92.1094 32.7847L95.623 32.7847L95.623 21.2654L110.411 33.0591L110.411 15.073L106.908 15.073L106.908 26.396L92.1094 14.8L92.1094 32.7847ZM133.198 15.104L133.198 17.7556L123.73 17.7556L123.73 22.0173L132.22 22.0173L132.22 24.6392L123.73 24.6392L123.73 30.1321L133.198 30.1321L133.198 32.8118L120.156 32.8118L120.156 15.104L133.198 15.104ZM141.687 31.5256C143.195 32.3918 145.648 33.0835 148.524 33.0835C152.906 33.0835 156.239 31.2954 156.239 28.0657C156.239 25.4988 154.694 23.9424 151.33 22.9321L147.858 21.895C146.069 21.3757 145.053 20.8564 145.053 19.5583C145.053 18.1162 146.664 17.4246 148.839 17.4246C151.363 17.4246 153.327 18.2036 155.115 19.3281L155.115 16.2422C153.397 15.3193 151.188 14.8 148.769 14.8C144.808 14.8 141.511 16.5017 141.511 19.6162C141.511 22.5286 143.685 23.7971 146.559 24.6621L149.68 25.585C151.609 26.1904 152.695 26.7393 152.695 28.1235C152.695 29.7095 150.98 30.4307 148.523 30.4307C145.999 30.4307 143.649 29.6812 141.687 28.3831L141.687 31.5256ZM163.708 31.5256C165.217 32.3918 167.671 33.0835 170.546 33.0835C174.929 33.0835 178.259 31.2954 178.259 28.0657C178.259 25.4988 176.716 23.9424 173.351 22.9321L169.878 21.895C168.091 21.3757 167.074 20.8564 167.074 19.5583C167.074 18.1162 168.687 17.4246 170.86 17.4246C173.385 17.4246 175.35 18.2036 177.137 19.3281L177.137 16.2422C175.42 15.3193 173.211 14.8 170.791 14.8C166.828 14.8 163.533 16.5017 163.533 19.6162C163.533 22.5286 165.707 23.7971 168.581 24.6621L171.702 25.585C173.632 26.1904 174.718 26.7393 174.718 28.1235C174.718 29.7095 173 30.4307 170.546 30.4307C168.021 30.4307 165.672 29.6812 163.708 28.3831L163.708 31.5256Z" fill="#FFFFFF" fill-opacity="1.000000" fill-rule="evenodd"/>
	</g>
</svg>