<svg width="103.599609" height="71.533447" viewBox="0 0 103.6 71.5334" fill="none" xmlns="http://www.w3.org/2000/svg" xmlns:xlink="http://www.w3.org/1999/xlink">
	<defs>
		<clipPath id="clip1_208">
			<rect id="634fd1e51b32febcc936bbf4_cnbc.svg" width="103.599998" height="71.533333" fill="white" fill-opacity="0"/>
		</clipPath>
	</defs>
	<g clip-path="url(#clip1_208)">
		<path id="Vector" d="M20.7588 16.8462C17.4541 19.8201 16.251 26.5583 22.208 30.4976L45.9736 46.7063L34.4502 20.4622C32.0361 14.2693 25.4297 12.9187 20.7588 16.8462Z" fill="#FFFFFF" fill-opacity="1.000000" fill-rule="nonzero"/>
		<path id="Vector" d="M41.2168 4.08691C37.3545 4.16528 31.5537 8.73853 34.1348 15.7217L46.0527 43.6638L50.2402 14.2742C51.209 6.97144 45.6504 3.60034 41.2168 4.08691Z" fill="#FFFFFF" fill-opacity="1.000000" fill-rule="nonzero"/>
		<path id="Vector" d="M52.0986 13.1521L54.3525 13.1521C54.3525 13.1521 55.5557 13.1521 55.7197 13.7163C54.833 14.4365 52.4189 14.5266 52.7393 18.3723L56.5273 43.6584L68.3643 15.6433C70.7852 9.38794 65.7031 4.16382 61.1953 4.00415C60.9854 3.98926 60.7734 3.97705 60.5547 3.97705C56.5088 3.97681 51.8721 6.90015 52.0986 13.1521Z" fill="#FFFFFF" fill-opacity="1.000000" fill-rule="nonzero"/>
		<path id="Vector" d="M67.8877 20.7007L56.6924 46.6299L80.4502 30.3354C85.9268 26.4739 85.0439 20.3 81.9785 17.2483C80.6924 15.812 78.333 14.7024 75.833 14.7024C72.8799 14.7017 69.7197 16.259 67.8877 20.7007Z" fill="#FFFFFF" fill-opacity="1.000000" fill-rule="nonzero"/>
		<path id="Vector" d="M77.791 34.0244L55.4795 49.5173L82.9512 49.5173C88.5879 49.5173 92.21 43.7402 90.5996 38.4387C89.5215 35.1064 86.3311 32.4907 82.627 32.4868C81.0684 32.4875 79.415 32.9543 77.791 34.0244Z" fill="#FFFFFF" fill-opacity="1.000000" fill-rule="nonzero"/>
		<path id="Vector" d="M20.1191 49.5183L47.1855 49.5183L24.8682 34.0254C19.7129 30.7322 13.915 32.6592 11.8223 38.124C10.0479 44.3801 14.4775 49.5183 20.1191 49.5183Z" fill="#FFFFFF" fill-opacity="1.000000" fill-rule="nonzero"/>
		<path id="Vector" d="M9.95312 60.7305C9.95312 63.3691 12.123 68.1719 20.4072 68.1719C28.0459 68.1719 30.459 64.6875 30.459 63.0898L24.5449 63.0898C24.5449 63.0898 24.2646 65.2007 20.9287 65.2007C17.5898 65.2007 16.6875 62.4309 16.6875 60.8291C16.6875 59.2336 17.5898 56.6135 20.9287 56.6135C24.2646 56.6135 24.5449 58.4512 24.5449 58.4512L30.459 58.4512C30.459 56.8516 28.6885 53.4163 20.4072 53.4163C12.123 53.4163 9.95312 58.5315 9.95312 60.7305Z" fill="#FFFFFF" fill-opacity="1.000000" fill-rule="nonzero"/>
		<path id="Vector" d="M71.9717 60.7305C71.9717 63.3691 74.1436 68.1719 82.4258 68.1719C90.0635 68.1719 92.4775 64.6875 92.4775 63.0898L86.5684 63.0898C86.5684 63.0898 86.2861 65.2007 82.9492 65.2007C79.6104 65.2007 78.707 62.4309 78.707 60.8291C78.707 59.2336 79.6104 56.6135 82.9492 56.6135C86.2861 56.6135 86.5684 58.4512 86.5684 58.4512L92.4775 58.4512C92.4775 56.8516 90.709 53.4163 82.4258 53.4163C74.1436 53.4163 71.9717 58.5315 71.9717 60.7305Z" fill="#FFFFFF" fill-opacity="1.000000" fill-rule="nonzero"/>
		<path id="Vector" d="M46.6201 53.6631L46.6201 62.5955L39.7383 53.6631L31.9961 53.6631L31.9961 67.811L37.3037 67.811L37.3037 58.7761L44.0654 67.811L51.9277 67.811L51.9277 53.6631L46.6201 53.6631Z" fill="#FFFFFF" fill-opacity="1.000000" fill-rule="nonzero"/>
		<path id="Vector" d="M63.6279 64.4312L63.6279 64.4497L59.2061 64.4497L59.2061 61.8518L63.6279 61.8518L63.6279 61.8604C64.5723 61.8604 65.335 62.4375 65.335 63.1477C65.335 63.8564 64.5723 64.4312 63.6279 64.4312ZM59.2461 56.4148L63.5078 56.4148L63.5078 56.4209C64.2295 56.4209 64.8145 56.8928 64.8145 57.4741C64.8145 58.0574 64.2295 58.5256 63.5078 58.5256L63.5078 58.532L59.2461 58.532L59.2461 56.4148ZM67.9717 60.2896C68.9375 60.2896 70.958 59.1746 70.958 57.0144C70.958 53.9382 65.1963 53.6631 64.3125 53.6631L53.6963 53.6631L53.6963 67.811L64.3125 67.811C69.418 67.811 71.4688 66.2075 71.4688 63.5298C71.4688 60.8521 67.9717 60.2896 67.9717 60.2896Z" fill="#FFFFFF" fill-opacity="1.000000" fill-rule="nonzero"/>
	</g>
</svg>