<svg width="365.066406" height="71.533447" viewBox="0 0 365.066 71.5334" fill="none" xmlns="http://www.w3.org/2000/svg" xmlns:xlink="http://www.w3.org/1999/xlink">
	<defs>
		<clipPath id="clip1_204">
			<rect id="634fd1e4df9f126442bae7db_cointelegraph.svg" width="365.066681" height="71.533333" fill="white" fill-opacity="0"/>
		</clipPath>
	</defs>
	<g clip-path="url(#clip1_204)">
		<path id="Vector" d="M41.8994 49.0151L31.9795 53.313L31.9795 52.8845C30.002 53.3713 27.9795 53.6592 25.9434 53.7437C16.6152 53.6526 9.20703 48.7886 9.12402 43.0034L9.12402 40.8545C12.1875 45.2922 18.4248 48.2668 25.9434 48.1582C28.4854 48.2668 31.0889 47.8652 33.2744 47.2991L34.1377 45.1501C31.543 45.9226 28.7139 46.4578 25.9434 46.4377C16.6152 46.46 9.20703 41.5959 9.12402 35.7017L9.12402 33.9834C12.1875 38.0859 18.4111 41.0608 25.9434 40.8567C29.3311 41.0608 32.6436 40.3503 35.4297 39.1384L35.8613 36.9893C33.1406 38.4211 29.6133 39.2515 25.9414 39.1384C16.6172 39.2471 9.21191 34.3853 9.12598 28.3958L9.12598 26.6775C12.1904 30.8733 18.4268 33.8481 25.9453 33.9812C30.2168 33.8481 34.2686 32.7249 37.5879 30.9731L38.0195 28.3958C35.0068 30.6201 30.6074 32.0542 25.9453 32.2629C16.6152 32.0542 9.20703 27.1902 9.12402 21.092C9.20996 15.2932 16.6152 10.4314 25.9434 10.3516C31.502 10.4292 36.668 12.3718 39.7441 15.5063L40.042 16.0037L42.2158 16.0127L41.8994 15.5063C38.8398 11.3662 32.7246 8.6333 25.9434 8.6333C15.623 8.6333 7.39941 14.301 7.39941 21.092L7.39941 43.4341C7.76074 50.0608 15.7969 55.4619 25.9434 55.4619C32.6436 55.4619 38.666 52.8357 41.8975 49.0173L41.8994 49.0151Z" fill="#FFFFFF" fill-opacity="1.000000" fill-rule="nonzero"/>
		<path id="Vector" d="M37.8643 64.1333L41.3467 49.3926L31.3359 53.7283L37.4326 28.1448L25.6816 28.1448L28.7275 15.5708L66.1543 15.5708L63.1084 28.1448L50.9209 28.1448L48.3115 35.0823L61.8018 29.4458L37.8643 64.1333ZM43.959 46.3555L42.2188 55.0269L56.5801 33.3486L44.8291 38.5522L50.0508 26.4089L61.8018 26.4089L63.9785 17.3069L30.0312 17.3069L27.8555 26.4089L39.6064 26.4089L33.9482 50.6912L43.959 46.3555ZM100.309 36.7939C100.135 39.1694 99.2402 41.043 97.6289 42.4084C96.0176 43.7737 93.8936 44.4575 91.2559 44.4575C88.373 44.4575 86.1035 43.5029 84.4541 41.5959C82.7979 39.6912 81.9727 37.0715 81.9727 33.7437L81.9727 32.3918C81.9727 30.2671 82.3545 28.3958 83.1162 26.7751C83.8779 25.1589 84.9668 23.9158 86.3838 23.0522C87.7988 22.1863 89.4434 21.7534 91.3193 21.7534C93.9141 21.7534 96.0039 22.4373 97.5898 23.8025C99.1768 25.168 100.094 27.0859 100.341 29.5522L95.708 29.5522C95.5928 28.1272 95.1885 27.0925 94.4941 26.4509C93.7988 25.8071 92.7412 25.4875 91.3193 25.4875C89.7734 25.4875 88.6191 26.0315 87.8506 27.1191C87.082 28.207 86.6895 29.8943 86.6689 32.1809L86.6689 33.8481C86.6689 36.2368 87.0371 37.9817 87.7734 39.085C88.5107 40.1885 89.6719 40.739 91.2559 40.739C92.6885 40.739 93.7578 40.417 94.4629 39.7754C95.168 39.1316 95.5703 38.1394 95.6738 36.7939L100.309 36.7939ZM124.089 33.606C124.089 35.7817 123.698 37.6887 122.913 39.3269C122.132 40.9653 121.011 42.2307 119.553 43.1233C118.098 44.0112 116.426 44.4553 114.541 44.4553C112.677 44.4553 111.016 44.0156 109.552 43.1365C108.089 42.2573 106.957 40.9988 106.152 39.3647C105.351 37.731 104.943 35.8528 104.933 33.7261L104.933 32.636C104.933 30.4604 105.332 28.5444 106.13 26.8906C106.928 25.2366 108.056 23.9668 109.513 23.0811C110.971 22.1975 112.636 21.7534 114.509 21.7534C116.385 21.7534 118.051 22.1975 119.508 23.0811C120.966 23.969 122.093 25.2366 122.891 26.8906C123.688 28.5444 124.089 30.4536 124.089 32.6182L124.089 33.606ZM119.393 32.605C119.393 30.2871 118.97 28.5266 118.125 27.3213C117.28 26.1204 116.075 25.5164 114.509 25.5164C112.954 25.5164 111.755 26.1113 110.912 27.3013C110.066 28.489 109.64 30.2317 109.628 32.5293L109.628 33.606C109.628 35.8616 110.051 37.6133 110.894 38.8564C111.741 40.0996 112.954 40.7234 114.541 40.7234C116.096 40.7234 117.291 40.124 118.125 38.9253C118.961 37.7263 119.382 35.9792 119.391 33.6816L119.391 32.605L119.393 32.605ZM134.644 44.1533L130.009 44.1533L130.009 22.0576L134.642 22.0576L134.642 44.1533L134.644 44.1533ZM159.488 44.1533L154.851 44.1533L145.83 29.6145L145.83 44.1533L141.195 44.1533L141.195 22.0576L145.828 22.0576L154.867 36.6252L154.867 22.0576L159.485 22.0576L159.485 44.1533L159.488 44.1533ZM182.277 25.7451L175.386 25.7451L175.386 44.1533L170.754 44.1533L170.754 25.7451L163.958 25.7451L163.958 22.0576L182.28 22.0576L182.28 25.7451L182.277 25.7451ZM200.711 34.5784L191.812 34.5784L191.812 40.4971L202.257 40.4971L202.257 44.1533L187.179 44.1533L187.179 22.0576L202.226 22.0576L202.226 25.7451L191.812 25.7451L191.812 31.011L200.711 31.011L200.711 34.5784ZM211.868 40.4971L221.709 40.4971L221.709 44.1533L207.233 44.1533L207.233 22.0576L211.865 22.0576L211.865 40.4971L211.868 40.4971ZM240.158 34.5784L231.259 34.5784L231.259 40.4971L241.703 40.4971L241.703 44.1533L226.626 44.1533L226.626 22.0576L241.671 22.0576L241.671 25.7451L231.259 25.7451L231.259 31.011L240.158 31.011L240.158 34.5784ZM264.479 41.3606C263.642 42.3418 262.464 43.1033 260.938 43.645C259.415 44.1865 257.726 44.4575 255.872 44.4575C253.927 44.4575 252.219 44.04 250.751 43.2053C249.283 42.3706 248.152 41.1584 247.354 39.5713C246.556 37.9817 246.146 36.1147 246.126 33.9702L246.126 32.4673C246.126 30.2627 246.504 28.3535 247.261 26.7395C248.017 25.1257 249.108 23.8914 250.536 23.0366C251.961 22.1819 253.634 21.7534 255.549 21.7534C258.215 21.7534 260.302 22.3796 261.805 23.6272C263.308 24.877 264.199 26.6953 264.479 29.084L259.967 29.084C259.76 27.8186 259.306 26.8928 258.601 26.3066C257.893 25.7207 256.923 25.4253 255.687 25.4253C254.112 25.4253 252.912 26.0071 252.087 27.1726C251.265 28.3357 250.846 30.0652 250.838 32.3606L250.838 33.7725C250.838 36.0903 251.285 37.8396 252.18 39.0229C253.077 40.2083 254.39 40.7988 256.118 40.7988C257.858 40.7988 259.103 40.4348 259.844 39.7065L259.844 35.8972L255.627 35.8972L255.627 32.5449L264.479 32.5449L264.479 41.3606ZM278.815 36.0637L275.126 36.0637L275.126 44.1533L270.49 44.1533L270.49 22.0576L278.848 22.0576C281.506 22.0576 283.556 22.6392 284.995 23.8025C286.438 24.9658 287.159 26.6108 287.159 28.7354C287.159 30.2427 286.827 31.4993 286.163 32.5049C285.498 33.5129 284.49 34.3142 283.141 34.9114L288.009 43.9402L288.009 44.1533L283.035 44.1533L278.815 36.0637ZM275.126 32.3784L278.864 32.3784C280.026 32.3784 280.929 32.0854 281.566 31.5037C282.206 30.9221 282.524 30.1206 282.524 29.0994C282.524 28.0562 282.224 27.2368 281.62 26.6396C281.02 26.0425 280.095 25.7451 278.848 25.7451L275.126 25.7451L275.126 32.3762L275.126 32.3784ZM305.64 39.6001L297.513 39.6001L295.968 44.1533L291.042 44.1533L299.413 22.0576L303.708 22.0576L312.128 44.1533L307.198 44.1533L305.64 39.6023L305.64 39.6001ZM298.765 35.9148L304.388 35.9148L301.561 27.6431L298.765 35.9126L298.765 35.9148ZM321.121 36.3677L321.121 44.1533L316.489 44.1533L316.489 22.0576L325.262 22.0576C326.951 22.0576 328.437 22.3618 329.718 22.9678C330.943 23.5242 331.974 24.425 332.678 25.5564C333.367 26.6731 333.711 27.9451 333.711 29.3726C333.711 31.5371 332.958 33.2441 331.448 34.4941C329.938 35.7439 327.851 36.3677 325.185 36.3677L321.121 36.3677ZM321.121 32.6804L325.262 32.6804C326.486 32.6804 327.421 32.3962 328.063 31.8301C328.71 31.2639 329.031 30.4536 329.031 29.4014C329.031 28.3203 328.708 27.4456 328.059 26.7773C327.408 26.1113 326.514 25.7651 325.37 25.7451L321.121 25.7451L321.121 32.6804ZM357.459 44.1533L352.827 44.1533L352.827 34.6829L343.788 34.6829L343.788 44.1533L339.154 44.1533L339.154 22.0576L343.788 22.0576L343.788 31.011L352.827 31.011L352.827 22.0576L357.459 22.0576L357.459 44.1533Z" fill="#FFFFFF" fill-opacity="1.000000" fill-rule="nonzero"/>
	</g>
</svg>