<svg width="175.133789" height="71.533447" viewBox="0 0 175.134 71.5334" fill="none" xmlns="http://www.w3.org/2000/svg" xmlns:xlink="http://www.w3.org/1999/xlink">
	<defs>
		<clipPath id="clip1_198">
			<rect id="634fd1e457515c47900c01e4_forbes.svg" width="175.133347" height="71.533333" fill="white" fill-opacity="0"/>
		</clipPath>
	</defs>
	<g clip-path="url(#clip1_198)">
		<path id="Vector" d="M22.9346 18.811L26.458 18.811C28.6045 18.488 30.7959 18.7722 32.7949 19.6323C35.3037 21.1741 37.1221 23.656 37.8643 26.5491C38.3906 28.0649 38.3906 28.0649 39.6572 27.5281L40.6465 27.5281L40.6465 15.5264L7.47852 15.5264L7.47852 17.6426L8.83887 17.6426C9.42969 17.6384 10.0146 17.7695 10.5488 18.0264C11.084 18.2834 11.5557 18.6594 11.9297 19.127C13.1973 21.2114 13.4141 23.5486 13.4141 35.7083C13.4141 48.6257 13.1357 51.7842 11.9297 53.395C11.6318 53.8091 11.2471 54.1492 10.8027 54.3899C10.3584 54.6304 9.86621 54.7654 9.36426 54.7847C7.47852 55.1321 7.47852 55.1003 7.47852 55.9531C7.37402 56.2383 7.37402 56.5525 7.47852 56.8376L28.4062 56.8376C28.5439 56.5586 28.6162 56.2502 28.6162 55.9375C28.6162 55.6245 28.5439 55.3164 28.4062 55.0374C27.8984 54.8933 27.3828 54.7876 26.8604 54.7214C26.2959 54.6528 25.7373 54.5366 25.1914 54.374C24.4092 53.7908 23.7891 53.009 23.3936 52.1062C22.998 51.2031 22.8398 50.2104 22.9346 49.2261C22.625 47.1416 22.4707 43.3198 22.4707 40.1616L22.4707 37.6665L23.707 37.6665C25.248 37.6184 26.7871 37.7883 28.2822 38.1716C28.998 38.6238 29.6074 39.2319 30.0674 39.9526C30.5273 40.6733 30.8252 41.4888 30.9404 42.3408L31.2188 43.3198L33.1045 43.3198L33.1045 29.3284L31.373 29.3284L31.0947 30.6865C30.9785 31.5576 30.6621 32.3889 30.1738 33.113C29.6855 33.8369 29.0371 34.4338 28.2822 34.8555C27.5508 35.0779 26.7803 35.1318 26.0254 35.0134L22.4707 35.0134L22.4707 31.6023C22.4707 28.0649 22.6562 20.6113 22.7803 19.4429L22.9346 18.811ZM167.601 43.8567C166.141 41.4541 163.861 39.6877 161.202 38.8982C159.164 38.2471 157.28 37.1719 155.669 35.7397C155.307 35.3816 155.035 34.9382 154.879 34.4482C154.724 33.9583 154.687 33.4365 154.772 32.929C154.775 31.9331 155.164 30.979 155.854 30.2759C156.323 29.7751 156.915 29.4136 157.568 29.2302C158.221 29.0466 158.912 29.0479 159.564 29.2336C160.916 29.6272 162.137 30.3867 163.1 31.4321C164.063 32.4773 164.731 33.7695 165.035 35.1714C165.529 36.5925 165.592 36.5925 166.488 36.2136L167.044 35.9924L167.044 28.1282L166.643 27.9387C163.6 26.8467 160.371 26.3955 157.153 26.6123C154.382 26.6838 151.735 27.8103 149.734 29.7705C148.827 30.6387 148.115 31.6992 147.65 32.8777C147.187 34.0562 146.979 35.324 147.045 36.5925C147.062 38.5322 147.815 40.3892 149.146 41.7722C150.617 43.2502 152.423 44.3352 154.401 44.9307C159.193 46.8572 160.584 48.0889 160.584 50.3313C160.605 51.2771 160.311 52.2017 159.748 52.9536C159.187 53.7053 158.392 54.2397 157.493 54.4688C156.413 54.7112 155.296 54.7112 154.217 54.4688C152.803 53.9084 151.541 53.0112 150.536 51.8523C149.531 50.6931 148.811 49.3054 148.436 47.8047L148.033 46.7942L147.478 46.7942C147.211 46.8142 146.951 46.8782 146.704 46.9834L146.396 46.9834L146.396 55.9531L146.921 55.9531C149.009 56.6631 151.164 57.1499 153.351 57.406L156.441 57.406C157.782 57.5066 159.13 57.3784 160.43 57.0271C162.079 56.7161 163.62 55.9692 164.9 54.8611C166.18 53.7529 167.154 52.322 167.725 50.7104C168.094 49.8103 168.282 48.8438 168.281 47.8679C168.402 46.4929 168.168 45.1096 167.601 43.8567ZM138.482 27.5281C136.63 26.7336 134.634 26.3481 132.626 26.397C130.618 26.446 128.642 26.9285 126.829 27.8125C125.125 28.6643 123.613 29.8716 122.395 31.3567C121.175 32.8418 120.274 34.5718 119.75 36.4346C119.081 38.4668 118.798 40.6108 118.915 42.7512C118.893 43.916 118.986 45.0801 119.193 46.2256C119.692 49.0422 121.023 51.6353 123.007 53.6565C124.991 55.6777 127.532 57.0303 130.291 57.5322C132.087 57.7637 133.904 57.7637 135.7 57.5322C137.563 57.1968 139.348 56.5 140.956 55.4795C142.285 54.7178 143.41 53.6331 144.231 52.321C144.18 52.1152 144.086 51.9224 143.959 51.7542C143.832 51.5859 143.672 51.4458 143.49 51.342C143.138 51.4727 142.805 51.6533 142.501 51.8789C140.963 52.9143 139.147 53.4331 137.308 53.3635C136.086 53.4478 134.861 53.2534 133.724 52.7947C132.584 52.3357 131.561 51.6238 130.724 50.7104C130.076 50.0964 129.542 49.3691 129.146 48.5627C128.187 46.5991 127.669 44.4407 127.632 42.2461L127.632 41.0144L144.757 41.0144L144.757 40.3826C144.795 39.7515 144.795 39.1187 144.757 38.4875C144.751 36.2576 144.167 34.0688 143.064 32.144C141.963 30.219 140.382 28.6265 138.482 27.5281ZM129.858 38.4561L127.693 38.4561L127.693 36.5925C128.405 31.8235 130.166 28.981 132.331 28.981C134.494 28.981 135.422 31.792 135.823 36.9399L135.823 38.3928L133.969 38.3928L129.858 38.4561ZM85.4072 26.4858C84.3389 26.4436 83.2773 26.6714 82.3154 27.1492C80.2266 28.1858 78.5391 29.9099 77.5244 32.0447L77.123 32.8027L77.123 26.4858L76.9678 26.4858C76.5967 26.4858 65.1602 28.823 64.7891 28.981C64.418 29.1389 64.541 29.1704 64.541 29.739C64.541 30.3074 64.541 30.4021 64.7891 30.4338L65.9941 30.6865C66.332 30.6951 66.6631 30.7817 66.9629 30.9407C67.2637 31.0991 67.5234 31.3257 67.7256 31.6023C68.498 32.6448 68.6523 34.4766 68.6523 42.2776C68.8057 45.7896 68.6611 49.3083 68.2197 52.7949C68.1162 53.3206 67.8555 53.8003 67.4736 54.1682C67.0908 54.5359 66.6074 54.7734 66.0869 54.8477L65.0361 55.0688L64.6338 55.0688L64.6338 55.9531C64.5225 56.2478 64.5225 56.5745 64.6338 56.8691L81.9141 56.8691L81.9141 55.9531C81.9736 55.6511 81.9736 55.3396 81.9141 55.0374C80.873 54.9958 79.8389 54.8584 78.8223 54.6267C78.2695 54.3311 77.8164 53.8708 77.5244 53.3071C77.2314 52.7434 77.1133 52.1023 77.1846 51.4685C76.9375 49.6365 76.8135 44.2673 76.875 40.1616C76.9375 36.0557 76.875 35.803 77.2148 35.5188C78.25 34.7085 79.5293 34.2949 80.832 34.3503C82.0596 34.3774 83.2646 34.6907 84.3555 35.2661C84.7344 35.4807 85.1396 35.6401 85.5615 35.7397C85.5615 35.7397 88.6523 28.0967 88.6523 27.7493C88.2568 27.2795 87.7529 26.9182 87.1865 26.6975C86.6191 26.4768 86.0078 26.4043 85.4072 26.4858ZM64.5723 39.751C64.4648 37.4939 63.8301 35.2961 62.7227 33.3403C61.6152 31.3845 60.0664 29.7275 58.2051 28.5071C55.9922 27.2878 53.5312 26.6157 51.0195 26.5444C48.5068 26.4731 46.0127 27.0046 43.7383 28.0967C40.5215 29.8296 38.0928 32.7754 36.9688 36.3083C35.8066 40.2639 35.8066 44.4807 36.9688 48.4363C37.5771 50.5981 38.7158 52.5657 40.2754 54.1531C42.2188 56.0901 44.7246 57.3313 47.417 57.6904C49.1445 57.8379 50.8818 57.8379 52.6094 57.6904C53.2451 57.5913 53.875 57.4543 54.4951 57.2798C57.0117 56.5605 59.2744 55.124 61.0215 53.1387C62.7676 51.1531 63.9238 48.7002 64.3564 46.0676C64.665 43.9775 64.7373 41.8579 64.5723 39.751ZM51.7129 55.5425C48.6221 56.4902 46.3037 53.4265 45.5312 46.9834C45.2471 43.6104 45.2471 40.2185 45.5312 36.8452C46.1494 31.6655 47.7256 29.0442 50.168 29.0442C50.6602 29.0129 51.1533 29.1028 51.6045 29.3062C52.0566 29.5093 52.4541 29.8203 52.7637 30.2126C54.835 32.3289 55.8555 36.5293 55.8555 42.8459C56.1123 46.4209 55.5625 50.0085 54.248 53.3318C53.667 54.301 52.7695 55.0283 51.7129 55.3848L51.7129 55.5425ZM107.354 27.1177C106.482 27.0029 105.599 27.0029 104.727 27.1177C103.053 27.1162 101.397 27.4822 99.873 28.1914L98.915 28.6021L98.915 21.7483C99.083 19.4353 99.083 17.113 98.915 14.8C98.5439 14.8 86.7363 17.1057 86.5508 17.2004C86.459 17.4336 86.459 17.6936 86.5508 17.9268C86.5508 18.5901 86.5508 18.5586 87.9414 18.8743C88.332 18.9639 88.707 19.1128 89.0547 19.3164C89.6582 19.8962 90.0596 20.6614 90.1982 21.4956C90.5498 23.8994 90.6641 26.333 90.5381 28.76L90.5381 56.4902L91.373 56.6797C92.6094 56.9639 96.1025 57.564 97.2461 57.6904C99.5303 57.876 101.824 57.876 104.108 57.6904C106.644 57.4258 109.06 56.4595 111.097 54.8955C113.134 53.3315 114.715 51.2295 115.669 48.8154C116.238 47.2659 116.633 45.6553 116.844 44.0146C117.028 41.7922 116.955 39.5557 116.628 37.3506C116.296 34.8789 115.229 32.5713 113.569 30.7407C111.91 28.9102 109.74 27.6453 107.354 27.1177ZM99.2549 55.0056C99.2549 54.5952 98.9463 40.7615 99.0078 35.2346L99.0078 30.9077L99.9043 30.6865C100.51 30.5979 101.123 30.5979 101.729 30.6865C102.397 30.6169 103.07 30.7722 103.645 31.1287C104.799 31.9426 105.758 33.0137 106.448 34.261C107.14 35.5083 107.544 36.8994 107.633 38.3296C107.857 40.6294 107.857 42.9465 107.633 45.2466C107.447 48.5891 106.187 51.7756 104.047 54.3108C103.439 54.9004 102.676 55.2957 101.852 55.4478C101.229 55.5588 100.59 55.5588 99.9658 55.4478C99.3789 55.4478 99.3789 55.2585 99.3789 55.0056L99.2549 55.0056Z" fill="#FFFFFF" fill-opacity="1.000000" fill-rule="nonzero"/>
	</g>
</svg>